<?xml version="1.0" standalone="no"?>
<!DOCTYPE svg PUBLIC "-//W3C//DTD SVG 20010904//EN"
 "http://www.w3.org/TR/2001/REC-SVG-20010904/DTD/svg10.dtd">
<svg version="1.0" xmlns="http://www.w3.org/2000/svg"
 width="95.000000pt" height="95.000000pt" viewBox="0 0 95.000000 95.000000"
 preserveAspectRatio="xMidYMid meet">

<g transform="translate(0.000000,95.000000) scale(0.100000,-0.100000)"
fill="#000000" stroke="none">
<path d="M387 880 c-47 -30 -47 -31 -46 -80 1 -28 4 -50 7 -50 3 0 25 12 50
26 l44 26 49 -27 49 -26 0 54 c0 55 0 55 -44 81 -25 14 -48 26 -53 26 -4 0
-29 -14 -56 -30z"/>
<path d="M183 761 c-42 -25 -43 -27 -43 -78 0 -29 2 -53 5 -53 3 0 23 11 45
25 22 14 42 25 45 25 3 0 5 -25 5 -55 0 -30 2 -55 4 -55 2 0 24 12 50 26 l46
26 0 55 0 55 -46 -26 c-25 -14 -50 -24 -54 -21 -4 2 -5 24 -3 49 3 24 1 46 -4
48 -4 3 -27 -6 -50 -21z"/>
<path d="M650 737 c0 -51 1 -53 45 -80 25 -15 48 -27 50 -27 3 0 5 24 5 53 0
51 -1 53 -45 80 -25 15 -48 27 -50 27 -3 0 -5 -24 -5 -53z"/>
<path d="M550 676 c0 -54 0 -54 46 -80 26 -14 48 -26 50 -26 2 0 4 24 4 53 l0
54 -50 27 -50 27 0 -55z"/>
<path d="M384 643 c-39 -25 -41 -28 -43 -79 -1 -30 1 -54 4 -54 4 0 27 12 52
27 l46 27 49 -27 48 -27 0 55 c0 53 -1 55 -43 80 -53 30 -61 30 -113 -2z"/>
<path d="M77 580 c-46 -29 -47 -31 -47 -80 0 -27 3 -50 6 -50 3 0 25 12 50 26
43 26 44 27 44 80 0 30 -1 54 -3 54 -2 0 -24 -13 -50 -30z"/>
<path d="M762 556 c3 -55 4 -57 46 -82 l43 -26 -3 57 c-3 55 -4 58 -46 82
l-43 26 3 -57z"/>
<path d="M182 524 c-41 -25 -42 -26 -42 -80 l0 -54 50 28 c49 27 49 27 47 74
-1 26 -5 49 -8 52 -2 3 -24 -6 -47 -20z"/>
<path d="M650 498 l0 -53 50 -28 50 -28 0 54 c0 55 0 55 -44 81 -25 14 -47 26
-50 26 -3 0 -6 -24 -6 -52z"/>
<path d="M283 464 c-42 -26 -43 -27 -43 -83 l0 -56 50 -28 49 -28 40 20 c22
12 42 25 45 30 3 5 -14 21 -39 35 -45 27 -45 27 -45 81 0 30 -3 55 -7 55 -5
-1 -27 -12 -50 -26z"/>
<path d="M548 433 c-3 -57 -4 -58 -46 -81 -48 -27 -46 -35 12 -66 l36 -19 47
29 c47 29 48 31 51 86 l3 56 -45 26 c-24 14 -47 26 -50 26 -3 0 -6 -26 -8 -57z"/>
<path d="M75 342 c-38 -27 -40 -30 -40 -81 l0 -54 51 -28 51 -29 47 26 c52 29
52 29 -16 65 -37 19 -38 21 -38 74 0 30 -3 55 -7 55 -5 -1 -26 -13 -48 -28z"/>
<path d="M760 316 c0 -54 -1 -56 -37 -75 -69 -36 -69 -36 -18 -65 l47 -26 49
27 49 26 0 62 c0 66 3 62 -82 103 -5 2 -8 -21 -8 -52z"/>
<path d="M292 231 l-44 -28 47 -27 46 -27 44 26 c25 14 45 27 45 29 0 5 -87
56 -92 55 -2 0 -23 -13 -46 -28z"/>
<path d="M502 233 c-23 -14 -39 -29 -36 -34 3 -5 23 -18 44 -29 l38 -20 47 27
c50 28 50 28 -15 62 -35 19 -35 19 -78 -6z"/>
<path d="M297 116 c-21 -13 -38 -27 -38 -31 0 -4 18 -18 41 -31 l42 -24 44 26
c24 14 44 27 44 29 0 3 -87 55 -92 55 -2 0 -20 -11 -41 -24z"/>
<path d="M508 120 c-20 -11 -39 -24 -43 -29 -3 -6 14 -21 38 -36 l44 -25 47
26 c25 14 46 27 46 29 0 3 -91 56 -94 55 0 -1 -18 -10 -38 -20z"/>
</g>
</svg>
