<svg xmlns="http://www.w3.org/2000/svg" xmlns:xlink="http://www.w3.org/1999/xlink" preserveAspectRatio="xMidYMid" width="14" height="16" viewBox="0 0 14 16">
<g fill="#FFFFFF">
  <path d="M13.850,14.207 C13.816,14.294 13.751,14.367 13.673,14.416 C13.570,14.479 11.118,16.000 7.015,16.000 C2.912,16.000 0.460,14.482 0.358,14.416 C0.276,14.367 0.215,14.294 0.181,14.207 C-0.000,13.763 0.003,12.879 0.007,12.706 C0.007,12.703 0.007,12.700 0.007,12.697 C0.010,12.670 0.010,12.644 0.010,12.614 C0.031,11.961 0.075,10.427 1.555,9.933 C1.565,9.930 1.576,9.927 1.589,9.923 C3.134,9.542 4.406,8.681 4.420,8.671 C4.628,8.528 4.915,8.578 5.061,8.780 C5.208,8.982 5.157,9.261 4.949,9.403 C4.891,9.440 3.533,10.361 1.835,10.785 C1.040,11.060 0.951,11.885 0.928,12.640 C0.928,12.670 0.924,12.697 0.924,12.723 C0.917,13.021 0.941,13.482 0.996,13.747 C1.552,14.052 3.731,15.109 7.012,15.109 C10.307,15.109 12.472,14.055 13.025,13.750 C13.079,13.485 13.100,13.025 13.096,12.726 C13.093,12.700 13.093,12.673 13.093,12.644 C13.069,11.888 12.980,11.063 12.186,10.788 C10.487,10.364 9.130,9.446 9.072,9.406 C8.864,9.264 8.813,8.986 8.959,8.784 C9.106,8.581 9.392,8.532 9.601,8.674 C9.614,8.684 10.893,9.546 12.431,9.927 C12.441,9.930 12.455,9.933 12.465,9.937 C13.946,10.427 13.990,11.961 14.010,12.617 C14.010,12.647 14.014,12.673 14.014,12.700 C14.014,12.703 14.014,12.706 14.014,12.710 C14.017,12.882 14.021,13.767 13.850,14.207 ZM7.060,8.621 C7.049,8.621 7.036,8.621 7.026,8.621 C7.019,8.621 7.012,8.621 7.005,8.621 C6.985,8.621 6.968,8.621 6.951,8.621 C5.951,8.605 5.143,8.263 4.550,7.611 C3.236,6.173 3.455,3.708 3.479,3.472 C3.564,1.693 4.437,0.848 5.153,0.454 C5.866,0.060 6.610,-0.000 6.988,-0.000 L7.009,-0.000 C7.012,-0.000 7.019,-0.000 7.022,-0.000 L7.046,-0.000 C7.735,0.013 8.352,0.172 8.881,0.467 C9.590,0.861 10.450,1.706 10.535,3.472 C10.559,3.708 10.777,6.173 9.464,7.611 C8.867,8.263 8.059,8.605 7.060,8.621 ZM9.621,3.555 C9.618,3.549 9.618,3.539 9.618,3.529 C9.512,1.282 7.946,0.918 7.026,0.898 C7.015,0.898 7.005,0.898 6.998,0.898 L6.985,0.898 C6.241,0.898 4.505,1.153 4.393,3.529 C4.393,3.535 4.389,3.545 4.389,3.555 C4.386,3.575 4.154,5.838 5.235,7.018 C5.661,7.488 6.238,7.720 6.988,7.727 C6.995,7.727 6.998,7.727 7.005,7.727 C7.012,7.727 7.015,7.727 7.022,7.727 C7.776,7.720 8.349,7.488 8.779,7.018 C9.863,5.831 9.624,3.578 9.621,3.555 Z" class="cls-1"/>
</g>
</svg>
